<svg fill="#FFFFFF" xmlns="http://www.w3.org/2000/svg" viewBox="0 0 30 30" width="24px" height="24px">
    <path
       id="rect846"
       style="fill:#ffffff;stroke:none;stroke-width:0.18213"
       d="M 1.9179578,5 C 0.85541011,5 0,5.8502303 0,6.9063433 V 22.974097 C 0,24.03021 0.85541011,24.88044 1.9179578,24.88044 H 28.082042 C 29.144589,24.88044 30,24.03021 30,22.974097 V 6.9063433 C 30,5.8502303 29.144589,5 28.082042,5 Z m 1.1271706,4.0002723 a 0.66548984,0.66145997 0 0 1 0.3369034,0.07183 L 15.032234,15.007658 26.77342,9.0721023 a 0.66548984,0.66145997 0 0 1 0.506916,-0.03876 0.66548984,0.66145997 0 0 1 0.387336,0.328146 0.66548984,0.66145997 0 0 1 -0.291152,0.8903847 l -12.043256,6.088 a 0.66555639,0.66152611 0 0 1 -0.605179,-0.0021 L 2.7747738,10.249808 A 0.66548984,0.66145997 0 0 1 2.4857024,9.3594233 0.66548984,0.66145997 0 0 1 3.0451284,9.0002723 Z" />
</svg>
